<?xml version="1.0" encoding="UTF-8"?>
<!DOCTYPE svg PUBLIC "-//W3C//DTD SVG 1.1//EN" "http://www.w3.org/Graphics/SVG/1.1/DTD/svg11.dtd">
<svg version="1.1" xmlns="http://www.w3.org/2000/svg" xmlns:xlink="http://www.w3.org/1999/xlink" x="0" y="0" width="792" height="612" viewBox="0, 0, 792, 612">
  <defs>
    <filter id="Shadow_1">
      <feGaussianBlur in="SourceAlpha" stdDeviation="2.5"/>
      <feOffset dx="0" dy="7" result="offsetblur"/>
      <feFlood flood-color="#000000"/>
      <feComposite in2="offsetblur" operator="in"/>
    </filter>
    <linearGradient id="Gradient_1" gradientUnits="userSpaceOnUse" x1="365.596" y1="32.712" x2="783.379" y2="32.712" gradientTransform="matrix(0.975, 0.221, -0.221, 0.975, 0, 0)">
      <stop offset="0" stop-color="#FFEED1"/>
      <stop offset="0.741" stop-color="#FAD982"/>
      <stop offset="1" stop-color="#FFB713"/>
    </linearGradient>
    <filter id="Shadow_2">
      <feGaussianBlur in="SourceAlpha" stdDeviation="3.282"/>
      <feOffset dx="0" dy="7" result="offsetblur"/>
      <feFlood flood-color="#000000"/>
      <feComposite in2="offsetblur" operator="in"/>
    </filter>
    <linearGradient id="Gradient_2" gradientUnits="userSpaceOnUse" x1="-237.153" y1="493.478" x2="502.067" y2="493.478" gradientTransform="matrix(0.865, -0.501, 0.501, 0.865, 0, 0)">
      <stop offset="0" stop-color="#70FF00"/>
      <stop offset="1" stop-color="#429600"/>
      <stop offset="1" stop-color="#6EFA01"/>
    </linearGradient>
  </defs>
  <g id="Layer_1">
    <g>
      <path d="M65.001,239.343 C70.526,252.206 76.389,264.89 82.931,277.213 C92.234,294.737 102.946,311.368 114.337,327.638 L78.61,346.603 C71.516,328.052 63.743,309.861 54.44,292.337 C47.899,280.014 40.679,268.051 33.119,256.268 L65.001,239.343 z M126.581,221.58 L138.344,243.739 C131.166,245.231 123.988,246.723 117.183,249.465 C121.89,256.966 126.43,264.7 130.631,272.614 C134.772,280.415 138.635,288.509 142.097,296.671 C135.279,298.841 128.32,299.927 121.24,300.786 C117.718,292.512 114.082,284.298 109.88,276.384 C107.18,271.297 104.193,266.216 101.04,261.368 C95.92,265.101 91.447,269.504 86.913,273.795 L75.21,251.749 C87.837,243.596 100.225,234.991 113.453,227.969 C117.749,225.689 122.105,223.521 126.581,221.58 z M178.853,193.107 L192.297,218.431 C188.263,217.385 182.505,216.093 178.661,218.134 C175.157,219.995 173.598,224.155 175.518,227.773 C179.239,234.783 197.436,231.934 204.878,245.953 C212.5,260.311 206.037,277.075 192.131,284.457 C188.061,286.617 183.677,287.64 179.113,288.324 L163.509,258.929 C167.048,258.499 171.633,258.674 174.799,256.993 C178.643,254.953 180.068,249.994 178.027,246.15 C174.547,239.592 162.663,240.684 156.421,228.926 C150.119,217.055 155.26,202.443 167.018,196.201 C170.749,194.22 174.741,193.55 178.853,193.107 z M148.775,199.509 L147.903,234.172 L138.417,237.324 L125.074,206.729 L148.775,199.509 z" filter="url(#Shadow_1)" fill="rgba(0,0,0,0.75)"/>
      <text transform="matrix(0.883, -0.469, 0.469, 0.883, 127.695, 267.901)">
        <tspan x="-81.792" y="46.5" font-family="WoodenShoeRevueNF" font-size="128" fill="#44BFB9">It’s</tspan>
      </text>
    </g>
    <path d="M629,648.5 L629,648.5" fill-opacity="0" stroke="#000000" stroke-width="1" stroke-linecap="round" stroke-linejoin="round"/>
  </g>
  <g id="Layer_3">
    <path d="M374.459,136.764 C382.303,116.501 357.196,110.063 355.556,93.512 C354.769,85.564 355.962,79.614 361.176,73.253 C381.592,48.347 410.591,74.126 435.686,74.769 C458.503,75.353 447.518,29.56 500.392,60.731 C505.407,63.687 511.584,64.701 516.087,68.392 C517.737,69.744 502.654,87.479 500.273,88.389 C496.494,89.833 490.766,88.986 486.489,90.391 C481.827,91.922 453.993,117.991 460.973,121.519 C497.653,140.057 547.497,117.782 546.631,78.394 C546.395,67.667 542.782,56.016 540.808,45.287 C539.661,39.048 538.604,22.803 546.337,20.906 C608.779,5.582 564.023,56.345 588.385,79.659 C604.785,95.354 635.837,67.421 649.734,89.47 C654.57,97.141 629.745,107.891 634.232,112.614 C641.684,120.458 681.324,118.833 692.304,127.834 C694.211,129.396 703.237,134.345 706.49,133.101 C728.982,124.507 755.652,79.813 775.892,111.925 C784.488,125.563 740.336,128.544 737.477,141.153 C735.01,152.032 753.208,168.098 748.93,176.563 C737.027,200.114 716.036,154.133 724.078,204.765 C724.947,210.24 737.516,225.663 732.644,230.292 C721.88,240.519 700.121,234.269 687.261,240.508 C677.656,245.169 705.345,269.231 695.788,275.254 C687.185,280.677 659.515,255.775 649.952,264.86 C635.003,279.063 657.101,300.16 671.6,300.531 C690.96,301.027 703.743,285.261 706.697,285.931 C728.022,290.767 709.692,343.307 691.88,351.272 C679.301,356.898 666.299,311.962 634.421,319.786 C614.924,324.57 661.97,368.471 609.449,375.646 C564.313,381.813 584.359,305.533 543.985,289.024 C530.116,283.353 502.19,295.367 495.415,308.772 C493.449,312.66 494.914,321.625 490.901,324.155 C486.542,326.902 475.971,329.658 471.135,329.926 C426.137,332.417 460.307,306.79 442.531,297.805 C423.01,287.939 393.567,305.553 379.412,295.797 C358.522,281.397 372.053,271.954 370.131,259.854 C368.299,248.319 356.062,237.857 355.752,223.781 C355.025,190.691 376.418,159.638 375.696,126.79 z" fill="url(#Gradient_1)"/>
  </g>
  <g id="Layer_2">
    <g>
      <path d="M334.417,307.905 L352.66,339.404 C342.343,341.982 332.026,344.56 322.257,348.923 L326.53,355.184 L336.344,349.501 L346.167,366.461 L336.838,371.864 L339.926,377.195 C350.982,370.306 360.271,361.205 369.491,351.982 C373.956,358.294 378.714,364.275 382.573,370.938 C387.695,379.782 391.172,389.417 394.407,399.192 C391.327,401.137 388.177,402.962 385.027,404.786 C369.506,414.068 352.303,419.933 334.48,422.781 L339.432,429.576 L310.516,450.044 L281.06,404.493 C277.441,418.076 277.985,431.028 278.153,445.006 C266.062,438.095 255.028,431.057 241.445,427.437 L266.297,475.655 L238.241,488.669 L208.855,505.689 C203.28,496.622 197.393,487.574 190.313,479.54 L160.51,496.801 C164.077,506.87 168.995,516.479 174.085,525.826 L148.618,540.576 C150.15,543.012 149.066,541.268 151.784,545.861 L119.507,561.643 L117.753,558.615 C116.733,559.367 115.642,559.999 114.552,560.63 C88.263,575.856 54.209,566.781 38.983,540.492 C23.757,514.203 32.832,480.15 59.121,464.923 C64.451,461.836 70.343,459.718 76.293,458.537 L80.008,485.345 C76.412,485.001 72.509,485.805 69.359,487.63 C60.879,492.541 57.922,503.637 62.834,512.118 C67.746,520.598 78.842,523.555 87.322,518.643 L87.736,518.242 C83.368,513.492 78.877,508.812 74.508,504.062 L104.451,483.97 C113.152,493.047 121.303,502.619 128.996,512.559 C122.167,491.919 120.6,469.747 123.154,448.214 C124.406,437.659 125.337,434.343 127.396,425.38 L144.963,415.206 C174.597,423.668 201.279,440.29 221.833,463.227 L187.178,385.417 C205.274,379.79 225.017,379.518 243.281,384.795 C247.792,366.327 257.731,349.408 271.617,336.511 L322.926,406.924 C316.394,394.046 319.693,400.22 313.075,388.378 C303.813,372.387 292.976,357.307 281.483,342.77 C291.467,333.751 301.853,325.147 313.605,318.341 C320.268,314.482 327.403,311.159 334.417,307.905 z M153.099,449.646 C153.024,457.617 153.695,465.479 154.869,473.374 L172.92,462.919 C166.658,457.972 160.05,453.547 153.099,449.646 z M643.274,129.022 L661.517,160.521 C651.2,163.099 640.883,165.677 631.114,170.04 L635.388,176.301 L645.201,170.618 L655.024,187.579 L645.695,192.981 L648.783,198.312 C659.839,191.423 669.129,182.322 678.348,173.099 C682.813,179.411 687.571,185.392 691.43,192.055 C696.552,200.899 700.029,210.534 703.264,220.309 C700.184,222.254 697.034,224.079 693.885,225.903 C678.363,235.185 661.16,241.05 643.337,243.898 L648.289,250.693 L619.374,271.161 L589.918,225.61 C586.298,239.194 586.842,252.145 587.01,266.123 C574.919,259.212 563.886,252.174 550.302,248.555 L575.155,296.772 L548.928,308.937 L548.987,309.015 L510.705,331.188 L510.151,329.905 C499.09,337.431 503.973,334.332 495.645,339.424 C483.651,346.371 470.828,351.047 457.865,355.482 L457.195,353.868 C458.836,370.578 449.659,385.828 435.656,394.392 C429.719,397.83 423.598,399.272 416.902,400.562 L392.695,358.766 C397.867,358.197 404.256,358.056 408.739,355.46 C414.433,352.162 416.249,344.962 412.951,339.268 C407.619,330.061 390.248,332.194 380.565,315.476 C370.812,298.636 377.702,277.011 394.299,267.398 C399.751,264.241 405.388,263.079 411.478,262.141 L411.848,262.78 L435.298,249.477 C442.302,259.334 448.77,269.664 454.804,280.082 C461.54,291.713 467.931,303.866 473.022,316.287 C480.907,310.417 487.859,303.437 494.728,296.439 C490.911,288.372 486.485,280.613 482.095,272.851 C474.446,259.646 466.072,246.862 457.333,234.288 L491.497,214.501 C498.054,228.338 504.976,241.964 512.624,255.169 C517.918,264.414 523.722,273.348 529.714,282.152 L496.035,206.534 C514.131,200.907 533.874,200.635 552.138,205.912 C556.65,187.444 566.588,170.525 580.475,157.628 L631.783,228.041 C625.251,215.163 628.55,221.337 621.932,209.495 C612.67,193.504 601.833,178.424 590.34,163.887 C600.324,154.869 610.711,146.264 622.462,139.458 C629.125,135.599 636.26,132.276 643.274,129.022 z M419.664,296.786 C417.07,296.858 414.796,297.43 412.523,298.584 C407.556,301.461 405.3,307.622 408.247,312.71 C409.015,313.855 409.136,314.157 410.429,315.22 C414.355,318.449 420.083,319.303 424.783,320.582 C432.897,322.789 440.927,325.21 447.079,331.217 C442.003,320.361 436.198,309.875 430.276,299.466 L429.207,297.665 C423.222,296.746 426.399,297.076 419.664,296.786 z" filter="url(#Shadow_2)" fill="rgba(0,0,0,0.75)"/>
      <path d="M151.784,545.861 C138.592,523.086 122.43,503.001 104.451,483.97 L74.509,504.062 C78.877,508.812 83.368,513.492 87.736,518.242 C87.615,518.312 87.443,518.573 87.322,518.643 C78.842,523.555 67.746,520.598 62.834,512.118 C57.922,503.637 60.879,492.541 69.36,487.63 C72.509,485.805 76.412,485.001 80.008,485.345 L76.293,458.537 C70.343,459.718 64.451,461.836 59.121,464.924 C32.832,480.15 23.757,514.203 38.983,540.492 C54.209,566.781 88.263,575.856 114.552,560.63 C115.642,559.999 116.733,559.367 117.753,558.615 L119.507,561.643 z M239.99,487.656 C217.83,451.631 185.649,427.073 144.963,415.206 L127.396,425.38 C117.162,466.091 121.078,506.373 142.459,543.011 L142.951,543.859 L174.085,525.826 C168.995,516.479 164.077,506.87 160.511,496.801 L190.313,479.54 C197.393,487.574 203.28,496.622 208.855,505.689 z M172.92,462.919 L154.869,473.374 C153.695,465.479 153.024,457.617 153.099,449.646 C160.05,453.547 166.658,457.972 172.92,462.919 z M339.432,429.576 L271.617,336.512 C257.731,349.408 247.792,366.327 243.281,384.795 C225.017,379.518 205.274,379.79 187.178,385.417 L234.033,490.62 L266.298,475.655 L241.445,427.437 C255.028,431.057 266.062,438.095 278.153,445.006 C277.985,431.028 277.441,418.076 281.06,404.493 L310.516,450.044 z M382.573,370.938 C378.714,364.275 373.956,358.294 369.491,351.982 C360.271,361.205 350.982,370.306 339.926,377.195 L336.838,371.864 L346.167,366.462 L336.344,349.501 L326.531,355.184 L322.257,348.923 C332.026,344.56 342.343,341.982 352.66,339.404 L334.417,307.905 C327.403,311.159 320.268,314.482 313.605,318.341 C301.853,325.147 291.467,333.751 281.483,342.77 C292.976,357.307 303.813,372.387 313.075,388.378 C319.67,399.766 325.469,411.454 330.904,423.352 C351.724,420.192 366.734,415.381 385.027,404.786 C388.177,402.962 391.327,401.137 394.407,399.192 C391.172,389.417 387.695,379.782 382.573,370.938 z M432.387,298.243 L411.478,262.141 C405.388,263.079 399.751,264.241 394.299,267.398 C377.702,277.011 370.812,298.636 380.566,315.476 C390.248,332.194 407.619,330.061 412.951,339.268 C416.249,344.962 414.433,352.162 408.739,355.46 C404.256,358.056 397.867,358.197 392.695,358.766 L416.903,400.562 C423.598,399.272 429.719,397.83 435.656,394.392 C455.403,382.955 463.835,357.848 452.117,337.616 C440.4,317.385 414.211,323.007 408.247,312.71 C405.3,307.622 407.556,301.461 412.523,298.584 C417.975,295.427 426.546,297.096 432.387,298.243 z M515.468,326.164 L496.944,294.181 C489.332,301.987 481.719,309.794 473.022,316.287 C467.931,303.866 461.54,291.713 454.804,280.082 C448.77,269.664 442.302,259.334 435.298,249.477 L408.142,264.882 C416.038,276.002 423.399,287.593 430.276,299.466 C440.73,317.517 450.095,336.199 457.865,355.482 C470.828,351.047 483.651,346.371 495.645,339.425 C502.55,335.425 508.914,330.769 515.468,326.164 z M548.987,309.015 C535.88,291.692 523.499,273.947 512.624,255.169 C504.976,241.964 498.054,228.338 491.497,214.501 L457.333,234.288 C466.072,246.862 474.446,259.646 482.095,272.851 C492.97,291.629 502.201,311.198 510.705,331.188 z M648.289,250.693 L580.475,157.629 C566.588,170.525 556.65,187.444 552.138,205.912 C533.874,200.635 514.131,200.907 496.035,206.534 L542.891,311.737 L575.155,296.772 L550.302,248.555 C563.886,252.174 574.919,259.212 587.01,266.123 C586.842,252.145 586.298,239.194 589.918,225.61 L619.374,271.161 z M691.43,192.055 C687.571,185.392 682.813,179.411 678.348,173.099 C669.129,182.322 659.839,191.423 648.783,198.312 L645.696,192.981 L655.024,187.579 L645.201,170.618 L635.388,176.301 L631.114,170.04 C640.883,165.677 651.2,163.099 661.517,160.521 L643.274,129.022 C636.26,132.276 629.125,135.599 622.462,139.458 C610.711,146.264 600.324,154.869 590.34,163.887 C601.833,178.424 612.67,193.504 621.932,209.495 C628.528,220.883 634.326,232.571 639.761,244.469 C660.581,241.309 675.591,236.498 693.885,225.903 C697.034,224.079 700.184,222.254 703.264,220.309 C700.029,210.534 696.552,200.899 691.43,192.055 z" fill="url(#Gradient_2)"/>
    </g>
  </g>
</svg>
